<svg width="980" height="927" viewBox="0 0 980 927" fill="none" xmlns="http://www.w3.org/2000/svg">
<g clip-path="url(#clip0_8_2)">
<rect width="980" height="927" fill="#E783AD"/>
<g filter="url(#filter0_d_8_2)">
<path fill-rule="evenodd" clip-rule="evenodd" d="M285.53 526.857C331.028 483.726 353.486 455.867 389.233 400.974C383.575 398.148 380.572 394.832 383.163 390.109C384.992 386.777 391.162 384.551 391.808 390.51C393.867 378.368 395.611 371.979 403.692 364.108C394.74 353.501 398.73 347 401.455 349.179C399.743 342.31 415.19 325.449 413.382 347.204L417.628 345.204C413.458 315.942 413.51 301.527 426.64 299.274C422.268 297.522 418.884 294.018 417.944 289.098C417.289 281.186 422.414 270.864 430.552 272.173C447.037 274.824 463.327 294.566 455.797 297.421C465.084 300.921 465.414 311.926 465.999 331.419L466.006 331.664C473.922 326.334 466.993 325.858 466.503 321.382C466.013 316.906 478.006 316.303 484.849 326.292C486.192 334.753 485.784 338.206 482.97 342.047C486.829 344.089 488.838 345.927 491.43 353.639L498.571 358.134C505.377 351.609 508.457 356.494 510.071 364.574L545.927 386.102C548.411 380.816 550.823 379.265 556.677 378.646C548.716 374.191 545.938 368.102 549.388 361.832C552.611 355.977 558.511 352.716 566.023 357.817L575.887 364.167C580.632 367.328 581.715 370.26 581.004 377.448C586.453 381.181 589.146 383.39 588.31 389.142L590.809 407.073C596.122 405.353 596.581 403.41 592.1 397.885C597.225 392.362 600.497 396.322 608.099 405.522L608.128 405.557C609.508 412.423 608.603 414.206 606.036 416.212C614.462 426.968 620.306 429.493 631.015 433.107C661.05 449.544 678.789 455.182 712.467 457.161C744.282 501.835 768.339 518.367 824.667 529.484L819.795 542.94L817.947 543.102L814.801 555.012L812.954 555.173L809.726 566.159L805.469 565.369L800.027 585.623L789.985 582.546L786.755 588.18L719.055 556.408L733.86 566.049L720.172 598.427L690.764 581.454L694.34 622.327L704.925 626.287L708.028 645.794L697.778 648.32L712.642 788.96L723.608 791.956L725.204 810.199L714.662 812.052L734.323 986.244L781.893 982.082L786.621 1017.5L802.554 1016.11L799.722 1034.27L603.067 1068.47L244.541 1090.29L243.728 1070.35L273.646 1066.57L271.326 1026.75L320.743 1022.43L308.925 850.109L296.695 848.619L294.876 827.836L306.804 825.862L295.107 636.313L253.584 627.148L234.701 632.058L227.028 629.471L225.554 612.614L196.368 616.796L195.984 612.409L182.25 615.007L181.563 607.155L151.497 598.617L143.92 586.482L141.149 586.724L133.613 575.051L131.304 575.253L125.565 565.517L117.792 561.776L285.53 526.857ZM332.874 645.109L325.712 640.384L337.776 820.825L363.729 816.926L363.324 812.307L375.563 811.237L364.27 663.537L352.632 660.832L351.018 647.71C345.933 651.262 344.075 655.38 342.685 666.821L334.247 660.811L332.542 662.59L327.479 657.913C329.287 650.035 330.557 648.089 332.874 645.109ZM378.649 854.48L339.559 851.85L351.918 1019.7L390.712 1016.31L378.649 854.48ZM471.848 842.603L407.283 851.974L419.347 1013.8L493.01 1007.36L479.148 843.593L471.848 842.603ZM547.129 836.016L505.473 841.29L519.757 1004.55L562.708 1000.79L547.129 836.016ZM604.114 827.773L578.352 831.191L594.344 998.025L620.439 995.742L604.114 827.773ZM687.344 816.303L634.916 823.45L651.844 992.995L705.879 988.267L687.344 816.303Z" fill="white" fill-opacity="0.7"/>
<path d="M508.443 118.289C522.868 86.8214 530.367 81.1367 549.717 76.6311L579.137 78.0418C608.017 86.4667 618.026 100.742 614.338 108.299C610.651 115.857 584.29 137.41 589.23 158.915C591.86 170.367 599.632 180.387 606.324 182.988C612.66 170.355 615.805 156.804 620.834 123.476C621.431 105.321 619.504 97.3905 614.678 84.6242C611.649 67.4851 613.073 56.9442 623.105 35.9085C638.381 13.2701 647.568 10.0974 664.693 15.7262C681.936 8.23047 691.355 12.731 707.98 26.8465C717.331 32.0567 720.535 36.3667 715.128 51.632C719.263 62.4413 720.049 68.2783 719.146 78.3585C724.059 85.2631 724.978 90.0929 723.066 100.588C737.97 102.72 746.978 105.828 764.015 114.204C776.435 118.751 782.237 122.161 785.171 133.741C814.952 167.986 829.055 187.854 849.11 224.567L893.536 315.014C901.862 332.179 905.143 340.519 905.279 350.102C898.041 376.48 891.393 383.263 875.794 383.778C850.35 414.946 836.992 429.893 819.521 438.846C818.96 455.822 819.369 465.082 826.648 479.263C831.868 482.679 834.392 484.975 837.325 490.577C848.151 535.081 855.255 557.094 869.921 590.749C898.939 629.02 914.761 635.829 942.348 627.292C954.094 631.24 962.312 642.867 982.219 693.885L998.078 772.005C1000.89 783.711 999.126 783.393 993.005 776.719C990.269 777.472 1005.44 816.314 992.504 819.176C984.362 820.976 971.388 790.491 966.158 791.871C961.912 805.494 957.11 817.209 955.673 824.975C954.235 832.742 949.841 834.842 952.243 842.944C956.333 856.738 984.065 863.226 987.425 871.121C997.743 894.992 999.948 907.443 999.997 928.636C1012.5 989.252 1007.05 1013.59 976.762 1041.08L1009.61 1036.33C1013.64 1038.32 1013.25 1043.07 1012.34 1051.83L1032.21 1048.32C1038.3 1051.49 1037.06 1057.05 1035.42 1066.51L1047.63 1066.79C1061.6 1094.09 1063.81 1112 1054.53 1113.84L894.152 1153.58L730.188 1171.03C720.323 1169.8 720.442 1153.94 721.695 1122.87L733.147 1120.85C728.15 1110.5 726.348 1105.35 729.524 1100.31L749.059 1096.86C743.379 1090.12 741.466 1086.46 746.208 1080.7L779.215 1074.88C758.852 1069.82 748.692 1062.93 734.287 1038.69C717.992 995.063 712.76 969.75 710.094 923.148C738.274 886.779 743.97 867.883 738.912 836.456C719.506 832.345 713.222 824.449 705.731 805.842C692.561 838.013 686.803 840.888 679.221 820.935C670.59 840.336 667.458 824.883 661.969 797.803L661.79 796.921C665.89 762.741 672.254 745.23 689.994 716.588C693.343 683.368 696.522 664.88 704.27 632.113C687.504 558.443 682.104 517.024 677.867 442.987C646.565 427.506 633.351 412.576 612.854 381.522C579.752 356.741 565.484 337.35 544.198 297.432C516.699 253.154 509.036 226.842 512.14 176.675C504.832 163.389 503.587 150.474 508.443 118.289Z" fill="white"/>
</g>
</g>
<defs>
<filter id="filter0_d_8_2" x="117.792" y="12.1372" width="951.345" height="1172.9" filterUnits="userSpaceOnUse" color-interpolation-filters="sRGB">
<feFlood flood-opacity="0" result="BackgroundImageFix"/>
<feColorMatrix in="SourceAlpha" type="matrix" values="0 0 0 0 0 0 0 0 0 0 0 0 0 0 0 0 0 0 127 0" result="hardAlpha"/>
<feOffset dx="5" dy="10"/>
<feGaussianBlur stdDeviation="2"/>
<feComposite in2="hardAlpha" operator="out"/>
<feColorMatrix type="matrix" values="0 0 0 0 0 0 0 0 0 0 0 0 0 0 0 0 0 0 0.25 0"/>
<feBlend mode="normal" in2="BackgroundImageFix" result="effect1_dropShadow_8_2"/>
<feBlend mode="normal" in="SourceGraphic" in2="effect1_dropShadow_8_2" result="shape"/>
</filter>
<clipPath id="clip0_8_2">
<rect width="980" height="927" fill="white"/>
</clipPath>
</defs>
</svg>
