<svg width="980" height="927" viewBox="0 0 980 927" fill="none" xmlns="http://www.w3.org/2000/svg">
<g clip-path="url(#clip0_3_84)">
<rect width="980" height="927" fill="#E783AD"/>
<g filter="url(#filter0_d_3_84)">
<rect x="813.404" y="-225.237" width="320" height="180" rx="35" transform="rotate(15 813.404 -225.237)" fill="white"/>
<rect x="396.483" y="-98.837" width="320" height="217.704" rx="35" transform="rotate(15 396.483 -98.837)" fill="white"/>
<rect x="753.875" y="-3.07397" width="320" height="180" rx="35" transform="rotate(15 753.875 -3.07397)" fill="white" fill-opacity="0.7"/>
<rect x="327.196" y="159.745" width="320" height="216.91" rx="35" transform="rotate(15 327.196 159.745)" fill="white"/>
<rect x="684.589" y="255.508" width="320" height="245.472" rx="35" transform="rotate(15 684.589 255.508)" fill="white" fill-opacity="0.5"/>
<rect x="250.722" y="445.149" width="320" height="261.061" rx="35" transform="rotate(15 250.722 445.149)" fill="white"/>
<rect x="608.115" y="540.912" width="320" height="212.126" rx="35" transform="rotate(15 608.115 540.912)" fill="white"/>
<rect x="965.507" y="636.675" width="320" height="249.669" rx="35" transform="rotate(15 965.507 636.675)" fill="white" fill-opacity="0.7"/>
<rect x="170.214" y="745.611" width="320" height="215.151" rx="35" transform="rotate(15 170.214 745.611)" fill="white" fill-opacity="0.7"/>
<rect x="527.606" y="841.374" width="320" height="180" rx="35" transform="rotate(15 527.606 841.374)" fill="white"/>
</g>
</g>
<defs>
<filter id="filter0_d_3_84" x="55" y="-321" width="1433.89" height="1784.94" filterUnits="userSpaceOnUse" color-interpolation-filters="sRGB">
<feFlood flood-opacity="0" result="BackgroundImageFix"/>
<feColorMatrix in="SourceAlpha" type="matrix" values="0 0 0 0 0 0 0 0 0 0 0 0 0 0 0 0 0 0 127 0" result="hardAlpha"/>
<feOffset dx="5" dy="10"/>
<feGaussianBlur stdDeviation="2"/>
<feComposite in2="hardAlpha" operator="out"/>
<feColorMatrix type="matrix" values="0 0 0 0 0 0 0 0 0 0 0 0 0 0 0 0 0 0 0.25 0"/>
<feBlend mode="normal" in2="BackgroundImageFix" result="effect1_dropShadow_3_84"/>
<feBlend mode="normal" in="SourceGraphic" in2="effect1_dropShadow_3_84" result="shape"/>
</filter>
<clipPath id="clip0_3_84">
<rect width="980" height="927" fill="white"/>
</clipPath>
</defs>
</svg>
